<?xml version="1.0" encoding="UTF-8" standalone="no"?>
<!-- Created with Inkscape (http://www.inkscape.org/) -->

<svg
   xmlns:dc="http://purl.org/dc/elements/1.1/"
   xmlns:cc="http://creativecommons.org/ns#"
   xmlns:rdf="http://www.w3.org/1999/02/22-rdf-syntax-ns#"
   xmlns:svg="http://www.w3.org/2000/svg"
   xmlns="http://www.w3.org/2000/svg"
   xmlns:sodipodi="http://sodipodi.sourceforge.net/DTD/sodipodi-0.dtd"
   xmlns:inkscape="http://www.inkscape.org/namespaces/inkscape"
   width="462.00247mm"
   height="50.593571mm"
   viewBox="0 0 462.00247 50.593569"
   version="1.1"
   id="svg8"
   sodipodi:docname="Logo-Funtrain-vectorise.svg"
   inkscape:version="0.92.3 (2405546, 2018-03-11)"
   inkscape:export-filename="C:\Users\vladi\Documents\nouveau logo Funtrain\logo-Funtrain.png"
   inkscape:export-xdpi="112.59506"
   inkscape:export-ydpi="112.59506">
  <defs
     id="defs2" />
  <sodipodi:namedview
     id="base"
     pagecolor="#ffffff"
     bordercolor="#666666"
     borderopacity="1.0"
     inkscape:pageopacity="0.0"
     inkscape:pageshadow="2"
     inkscape:zoom="0.98994949"
     inkscape:cx="861.0745"
     inkscape:cy="47.747524"
     inkscape:document-units="mm"
     inkscape:current-layer="layer1"
     showgrid="false"
     inkscape:window-width="2736"
     inkscape:window-height="1699"
     inkscape:window-x="-13"
     inkscape:window-y="-13"
     inkscape:window-maximized="1"
     fit-margin-left="5"
     fit-margin-right="5"
     fit-margin-bottom="5"
     fit-margin-top="5" />
  <metadata
     id="metadata5">
    <rdf:RDF>
      <cc:Work
         rdf:about="">
        <dc:format>image/svg+xml</dc:format>
        <dc:type
           rdf:resource="http://purl.org/dc/dcmitype/StillImage" />
        <dc:title></dc:title>
      </cc:Work>
    </rdf:RDF>
  </metadata>
  <g
     inkscape:label="Calque 1"
     inkscape:groupmode="layer"
     id="layer1"
     transform="translate(218.70766,-60.678223)">
    <g
       id="g890">
      <path
         sodipodi:nodetypes="ccsssssasccccccccccccc"
         inkscape:connector-curvature="0"
         id="rect826"
         d="M 24.722431,65.678223 H 173.96294 c 8.7092,0.110359 11.29434,1.175439 15.21354,2.173711 5.18959,1.321859 10.07906,3.297355 14.80314,5.296415 3.87012,1.637694 7.02793,3.272278 11.06056,5.202905 3.78621,1.812654 7.52447,3.969988 11.17797,6.037138 2.87495,1.626649 4.15316,2.475509 6.76366,4.422282 2.00324,1.49391 3.92526,3.034433 4.68972,5.254002 0.53621,1.556844 0.73661,3.668434 -0.32245,4.929255 -1.64197,1.954779 -7.44128,1.811739 -7.44128,1.811739 l 0.0266,1.17819 1.76435,2.24828 -19.75705,0.15104 -3.50344,-6.15918 h -36.0036 l -3.9842,6.164 H 74.702469 L 70.745306,98.224 H 34.74602 l -3.928555,6.164 h -6.095034 z"
         style="fill:#b8bfbe;fill-opacity:1;stroke:none;stroke-width:1.24712753;stroke-miterlimit:4;stroke-dasharray:none;stroke-opacity:1" />
      <path
         style="fill:#808080;fill-opacity:1;stroke:none;stroke-width:1.24712753;stroke-miterlimit:4;stroke-dasharray:none;stroke-opacity:1"
         d="m 24.722431,88.663402 212.949099,9.009413 c 0.53621,1.556844 0.73661,0.06029 -0.32245,1.321116 -1.64197,1.954779 -7.44128,1.811739 -7.44128,1.811739 l 0.0266,1.17819 1.76435,2.24828 -19.75705,0.15104 -3.50344,-6.15918 h -36.0036 l -3.9842,6.164 H 74.702469 L 70.745306,98.224 H 34.74602 l -3.928555,6.164 h -6.095034 z"
         id="path4551"
         inkscape:connector-curvature="0"
         sodipodi:nodetypes="ccsccccccccccccc" />
      <path
         style="fill:#f3f3f3;fill-opacity:1;stroke:none;stroke-width:1.24712753;stroke-miterlimit:4;stroke-dasharray:none;stroke-opacity:1"
         d="M 24.722431,77.849056 H 173.96294 c 8.7092,0.110359 11.54257,0.711552 15.49702,1.5595 3.96117,0.849388 10.57739,2.286537 15.88982,4.115239 4.34704,1.496387 7.55344,2.713297 11.53303,4.105205 5.1715,1.808793 8.43537,2.82084 14.20179,5.008722 3.27715,1.243408 4.47137,1.389746 6.68142,2.683725 0.85539,0.886684 0.64212,2.411663 -0.41694,3.672484 -1.64197,1.954779 -8.10945,-2.197304 -8.10945,-2.197304 L 169.867,95.411 v 1.797 H 24.722431 Z"
         id="path4532"
         inkscape:connector-curvature="0"
         sodipodi:nodetypes="ccsssscsccccc" />
      <path
         sodipodi:nodetypes="ccsssscscccccc"
         inkscape:connector-curvature="0"
         id="path4534"
         d="M 24.722431,79.436557 H 173.96294 c 8.7092,0.110359 11.54257,0.711552 15.49702,1.5595 3.96117,0.849388 10.57739,2.286537 15.88982,4.115239 4.34704,1.496387 7.55344,2.713297 11.53303,4.105205 5.1715,1.808793 8.43537,2.82084 14.20179,5.008722 3.27715,1.243408 4.47137,1.389746 6.68142,2.683725 0.42943,0.268623 0.64212,0.824163 -0.41694,2.084982 -1.64197,1.95479 -7.44128,1.81175 -7.44128,1.81175 L 208.43826,97.208 H 169.867 V 95.411 H 24.722431 Z"
         style="fill:#23209e;fill-opacity:1;stroke:none;stroke-width:1.24712753;stroke-miterlimit:4;stroke-dasharray:none;stroke-opacity:1" />
      <g
         id="g4594">
        <rect
           style="fill:#363636;fill-opacity:1;stroke:none;stroke-width:1.51699996;stroke-miterlimit:4;stroke-dasharray:none;stroke-opacity:1"
           id="rect4553"
           width="21.080883"
           height="6.1806078"
           x="42.228584"
           y="98.218285" />
        <g
           id="g4579">
          <circle
             r="4.0257473"
             cy="102.24605"
             cx="38.169434"
             id="path4555"
             style="fill:#363636;fill-opacity:1;stroke:none;stroke-width:1.51699996;stroke-miterlimit:4;stroke-dasharray:none;stroke-opacity:1" />
          <circle
             style="fill:#1d2626;fill-opacity:1;stroke:none;stroke-width:0.56449491;stroke-miterlimit:4;stroke-dasharray:none;stroke-opacity:1"
             id="circle4557"
             cx="38.169434"
             cy="102.24605"
             r="1.4980315" />
        </g>
        <g
           id="g4585"
           transform="translate(29.198661)">
          <circle
             style="fill:#363636;fill-opacity:1;stroke:none;stroke-width:1.51699996;stroke-miterlimit:4;stroke-dasharray:none;stroke-opacity:1"
             id="circle4581"
             cx="38.169434"
             cy="102.24605"
             r="4.0257473" />
          <circle
             r="1.4980315"
             cy="102.24605"
             cx="38.169434"
             id="circle4583"
             style="fill:#1d2626;fill-opacity:1;stroke:none;stroke-width:0.56449491;stroke-miterlimit:4;stroke-dasharray:none;stroke-opacity:1" />
        </g>
      </g>
      <g
         transform="translate(137.77744)"
         id="g4610">
        <rect
           y="98.218285"
           x="42.228584"
           height="6.1806078"
           width="21.080883"
           id="rect4596"
           style="fill:#363636;fill-opacity:1;stroke:none;stroke-width:1.51699996;stroke-miterlimit:4;stroke-dasharray:none;stroke-opacity:1" />
        <g
           id="g4602">
          <circle
             style="fill:#363636;fill-opacity:1;stroke:none;stroke-width:1.51699996;stroke-miterlimit:4;stroke-dasharray:none;stroke-opacity:1"
             id="circle4598"
             cx="38.169434"
             cy="102.24605"
             r="4.0257473" />
          <circle
             r="1.4980315"
             cy="102.24605"
             cx="38.169434"
             id="circle4600"
             style="fill:#1d2626;fill-opacity:1;stroke:none;stroke-width:0.56449491;stroke-miterlimit:4;stroke-dasharray:none;stroke-opacity:1" />
        </g>
        <g
           transform="translate(29.198661)"
           id="g4608">
          <circle
             r="4.0257473"
             cy="102.24605"
             cx="38.169434"
             id="circle4604"
             style="fill:#363636;fill-opacity:1;stroke:none;stroke-width:1.51699996;stroke-miterlimit:4;stroke-dasharray:none;stroke-opacity:1" />
          <circle
             style="fill:#1d2626;fill-opacity:1;stroke:none;stroke-width:0.56449491;stroke-miterlimit:4;stroke-dasharray:none;stroke-opacity:1"
             id="circle4606"
             cx="38.169434"
             cy="102.24605"
             r="1.4980315" />
        </g>
      </g>
      <g
         id="text4614"
         style="font-style:normal;font-variant:normal;font-weight:bold;font-stretch:normal;font-size:4.19836092px;line-height:1.25;font-family:'Kayak Sans';-inkscape-font-specification:'Kayak Sans Bold';letter-spacing:0px;word-spacing:0px;fill:#23209e;fill-opacity:1;stroke:none;stroke-width:0.28625184"
         aria-label="FUNTRAIN">
        <path
           id="path844"
           style="font-size:54.96035767px;fill:#23209e;fill-opacity:1;stroke-width:0.28625184"
           d="M -213.70766,65.717163 V 104.388 h 5.44773 V 87.776447 h 13.12286 v -5.447731 h -13.12286 V 71.164894 h 19.37567 v -5.447731 z" />
        <path
           id="path846"
           style="fill:#b8bfbe;fill-opacity:1"
           d="m -161.05521,88.366842 q 0,1.771183 -0.32204,3.327677 -0.3757,1.985873 -1.26129,3.435023 -2.25424,3.810728 -7.48728,3.810728 -5.2062,0 -7.48727,-3.810728 -0.85876,-1.44915 -1.2613,-3.435023 -0.2952,-1.556494 -0.2952,-3.327677 V 65.717163 h -5.44773 v 22.649679 q 0,7.406766 3.89124,11.727378 3.89123,4.29378 10.60026,4.29378 6.70903,0 10.60027,-4.29378 3.89123,-4.320612 3.89123,-11.727378 V 65.717163 h -5.42089 z" />
        <path
           id="path848"
           style="fill:#b8bfbe;fill-opacity:1"
           d="m -148.65693,65.717163 v 38.643997 h 5.44773 V 76.719969 l 14.54517,27.668031 h 5.76977 V 65.743999 h -5.4209 v 27.641196 l -14.54517,-27.668032 z" />
        <path
           id="path850"
           style="font-size:54.96035767px;fill:#23209e;fill-opacity:1;stroke-width:0.28625184"
           d="m -118.60048,65.717163 v 5.447731 H -107.544 V 104.388 h 5.44773 V 71.164894 h 11.056478 v -5.447731 z" />
        <path
           id="path852"
           style="fill:#b8bfbe;fill-opacity:1"
           d="M -81.271446,82.543405 V 71.138058 h 7.218914 q 2.844628,0 4.508467,1.10028 2.227397,1.422314 2.227397,4.615811 0,3.193498 -2.227397,4.615812 -1.663839,1.073444 -4.508467,1.073444 z m 19.402509,-5.689256 q 0,-5.072025 -3.327678,-8.104505 -3.300842,-3.032481 -8.855917,-3.032481 H -86.719177 V 104.388 h 5.447731 V 87.991136 h 6.172306 l 7.86298,16.396864 h 6.01129 l -8.158179,-17.067767 q 3.542367,-1.127117 5.501403,-3.837564 2.012709,-2.764119 2.012709,-6.62852 z" />
        <path
           id="path854"
           style="fill:#b8bfbe;fill-opacity:1"
           d="m -39.729148,65.690327 -0.02684,0.02684 h -5.742928 v -0.02684 0.02684 L -58.809623,104.388 h 5.742928 l 3.703383,-10.707608 h 13.498564 l 3.703384,10.707608 h 5.742928 L -39.729148,65.717163 Z m -7.782472,22.56917 4.884172,-14.196303 4.911009,14.196303 z" />
        <path
           id="path856"
           style="fill:#b8bfbe;fill-opacity:1"
           d="m -22.097816,104.388 h 5.447731 V 65.717163 h -5.447731 z" />
        <path
           id="path858"
           style="fill:#b8bfbe;fill-opacity:1"
           d="m -9.0017927,65.717163 v 38.643997 h 5.4477308 V 76.719969 L 10.991111,104.388 h 5.769764 V 65.743999 H 11.33998 V 93.385195 L -3.2051924,65.717163 Z" />
      </g>
    </g>
  </g>
</svg>
